<mxfile host="app.diagrams.net" modified="2021-02-19T11:03:54.154Z" agent="5.0 (Windows NT 10.0; Win64; x64) AppleWebKit/537.36 (KHTML, like Gecko) Chrome/88.0.4324.182 Safari/537.36" etag="Vf_gYBpRx6fEDRYU0BiE" version="14.2.9" type="github">
  <diagram id="Vujd3l2uatXl_vjyNgjD" name="Page-1">
    <mxGraphModel dx="1422" dy="762" grid="1" gridSize="10" guides="1" tooltips="1" connect="1" arrows="1" fold="1" page="1" pageScale="1" pageWidth="850" pageHeight="1100" math="0" shadow="0">
      <root>
        <mxCell id="0" />
        <mxCell id="1" parent="0" />
        <mxCell id="PzoiCF1ShPm4v35zvK3x-102" style="edgeStyle=orthogonalEdgeStyle;rounded=0;orthogonalLoop=1;jettySize=auto;html=1;entryX=0;entryY=0.5;entryDx=0;entryDy=0;" edge="1" parent="1" source="PzoiCF1ShPm4v35zvK3x-1" target="PzoiCF1ShPm4v35zvK3x-30">
          <mxGeometry relative="1" as="geometry" />
        </mxCell>
        <mxCell id="PzoiCF1ShPm4v35zvK3x-1" value="" style="shape=image;html=1;verticalAlign=top;verticalLabelPosition=bottom;labelBackgroundColor=#ffffff;imageAspect=0;aspect=fixed;image=https://cdn2.iconfinder.com/data/icons/crystalproject/128x128/apps/lockstart_session.png" vertex="1" parent="1">
          <mxGeometry x="7" y="11" width="50" height="50" as="geometry" />
        </mxCell>
        <mxCell id="PzoiCF1ShPm4v35zvK3x-2" value="&lt;font style=&quot;font-size: 10px&quot;&gt;Start&lt;/font&gt;" style="text;html=1;align=center;verticalAlign=middle;resizable=0;points=[];autosize=1;" vertex="1" parent="1">
          <mxGeometry x="10" y="45" width="40" height="20" as="geometry" />
        </mxCell>
        <mxCell id="PzoiCF1ShPm4v35zvK3x-5" value="&lt;font style=&quot;font-size: 10px&quot;&gt;Read Outlook &lt;br&gt;Email&amp;nbsp;&lt;/font&gt;" style="text;html=1;align=center;verticalAlign=middle;resizable=0;points=[];autosize=1;" vertex="1" parent="1">
          <mxGeometry x="109" y="283" width="80" height="40" as="geometry" />
        </mxCell>
        <mxCell id="PzoiCF1ShPm4v35zvK3x-9" style="edgeStyle=orthogonalEdgeStyle;rounded=0;orthogonalLoop=1;jettySize=auto;html=1;" edge="1" parent="1" source="PzoiCF1ShPm4v35zvK3x-7">
          <mxGeometry relative="1" as="geometry">
            <mxPoint x="279" y="253" as="targetPoint" />
          </mxGeometry>
        </mxCell>
        <mxCell id="PzoiCF1ShPm4v35zvK3x-7" value="" style="shape=image;html=1;verticalAlign=top;verticalLabelPosition=bottom;labelBackgroundColor=#ffffff;imageAspect=0;aspect=fixed;image=https://cdn2.iconfinder.com/data/icons/capsocial-square-flat-3/500/Outlook-128.png" vertex="1" parent="1">
          <mxGeometry x="119" y="223" width="60" height="60" as="geometry" />
        </mxCell>
        <mxCell id="PzoiCF1ShPm4v35zvK3x-15" style="edgeStyle=orthogonalEdgeStyle;rounded=0;orthogonalLoop=1;jettySize=auto;html=1;entryX=0;entryY=0.5;entryDx=0;entryDy=0;" edge="1" parent="1" source="PzoiCF1ShPm4v35zvK3x-8" target="PzoiCF1ShPm4v35zvK3x-14">
          <mxGeometry relative="1" as="geometry" />
        </mxCell>
        <mxCell id="PzoiCF1ShPm4v35zvK3x-16" value="Yes" style="edgeLabel;html=1;align=center;verticalAlign=middle;resizable=0;points=[];" vertex="1" connectable="0" parent="PzoiCF1ShPm4v35zvK3x-15">
          <mxGeometry x="-0.2441" y="1" relative="1" as="geometry">
            <mxPoint y="1" as="offset" />
          </mxGeometry>
        </mxCell>
        <mxCell id="PzoiCF1ShPm4v35zvK3x-23" style="edgeStyle=orthogonalEdgeStyle;rounded=0;orthogonalLoop=1;jettySize=auto;html=1;entryX=0.5;entryY=0;entryDx=0;entryDy=0;" edge="1" parent="1" source="PzoiCF1ShPm4v35zvK3x-8" target="PzoiCF1ShPm4v35zvK3x-22">
          <mxGeometry relative="1" as="geometry">
            <mxPoint x="314.5" y="393" as="targetPoint" />
          </mxGeometry>
        </mxCell>
        <mxCell id="PzoiCF1ShPm4v35zvK3x-26" value="No" style="edgeLabel;html=1;align=center;verticalAlign=middle;resizable=0;points=[];" vertex="1" connectable="0" parent="PzoiCF1ShPm4v35zvK3x-23">
          <mxGeometry x="0.2039" y="2" relative="1" as="geometry">
            <mxPoint y="-21" as="offset" />
          </mxGeometry>
        </mxCell>
        <mxCell id="PzoiCF1ShPm4v35zvK3x-8" value="" style="shape=image;html=1;verticalAlign=top;verticalLabelPosition=bottom;labelBackgroundColor=#ffffff;imageAspect=0;aspect=fixed;image=https://cdn0.iconfinder.com/data/icons/pinpoint-interface/48/data-condition-128.png" vertex="1" parent="1">
          <mxGeometry x="282" y="225" width="65" height="65" as="geometry" />
        </mxCell>
        <mxCell id="PzoiCF1ShPm4v35zvK3x-13" value="&lt;font style=&quot;font-size: 10px&quot;&gt;Check if any&lt;br&gt;&amp;nbsp;Email Exists&lt;/font&gt;" style="text;html=1;align=center;verticalAlign=middle;resizable=0;points=[];autosize=1;" vertex="1" parent="1">
          <mxGeometry x="233.5" y="281" width="70" height="40" as="geometry" />
        </mxCell>
        <mxCell id="PzoiCF1ShPm4v35zvK3x-20" style="edgeStyle=orthogonalEdgeStyle;rounded=0;orthogonalLoop=1;jettySize=auto;html=1;" edge="1" parent="1" source="PzoiCF1ShPm4v35zvK3x-14">
          <mxGeometry relative="1" as="geometry">
            <mxPoint x="619" y="257.75" as="targetPoint" />
          </mxGeometry>
        </mxCell>
        <mxCell id="PzoiCF1ShPm4v35zvK3x-14" value="" style="shape=image;html=1;verticalAlign=top;verticalLabelPosition=bottom;labelBackgroundColor=#ffffff;imageAspect=0;aspect=fixed;image=https://cdn2.iconfinder.com/data/icons/humano2/128x128/actions/extract-archive.png" vertex="1" parent="1">
          <mxGeometry x="479" y="225.5" width="64.5" height="64.5" as="geometry" />
        </mxCell>
        <mxCell id="PzoiCF1ShPm4v35zvK3x-17" value="&lt;font style=&quot;font-size: 10px&quot;&gt;Extract the SPA Clearance&lt;br&gt;Summary Data&lt;/font&gt;" style="text;html=1;align=center;verticalAlign=middle;resizable=0;points=[];autosize=1;" vertex="1" parent="1">
          <mxGeometry x="444.25" y="283" width="130" height="40" as="geometry" />
        </mxCell>
        <mxCell id="PzoiCF1ShPm4v35zvK3x-104" style="edgeStyle=orthogonalEdgeStyle;rounded=0;orthogonalLoop=1;jettySize=auto;html=1;entryX=1;entryY=0.5;entryDx=0;entryDy=0;" edge="1" parent="1" source="PzoiCF1ShPm4v35zvK3x-19" target="PzoiCF1ShPm4v35zvK3x-22">
          <mxGeometry relative="1" as="geometry">
            <Array as="points">
              <mxPoint x="650" y="406" />
            </Array>
          </mxGeometry>
        </mxCell>
        <mxCell id="PzoiCF1ShPm4v35zvK3x-19" value="" style="shape=image;html=1;verticalAlign=top;verticalLabelPosition=bottom;labelBackgroundColor=#ffffff;imageAspect=0;aspect=fixed;image=https://cdn0.iconfinder.com/data/icons/pinpoint-interface/48/repair-database-128.png" vertex="1" parent="1">
          <mxGeometry x="629" y="232" width="58" height="58" as="geometry" />
        </mxCell>
        <mxCell id="PzoiCF1ShPm4v35zvK3x-21" value="&lt;font style=&quot;font-size: 10px&quot;&gt;Add Email data&lt;br&gt;&amp;nbsp;to the datatable&lt;/font&gt;" style="text;html=1;align=center;verticalAlign=middle;resizable=0;points=[];autosize=1;" vertex="1" parent="1">
          <mxGeometry x="679" y="241" width="90" height="40" as="geometry" />
        </mxCell>
        <mxCell id="PzoiCF1ShPm4v35zvK3x-105" style="edgeStyle=orthogonalEdgeStyle;rounded=0;orthogonalLoop=1;jettySize=auto;html=1;entryX=0.5;entryY=0;entryDx=0;entryDy=0;" edge="1" parent="1" source="PzoiCF1ShPm4v35zvK3x-22" target="PzoiCF1ShPm4v35zvK3x-60">
          <mxGeometry relative="1" as="geometry" />
        </mxCell>
        <mxCell id="PzoiCF1ShPm4v35zvK3x-22" value="" style="shape=image;html=1;verticalAlign=top;verticalLabelPosition=bottom;labelBackgroundColor=#ffffff;imageAspect=0;aspect=fixed;image=https://cdn0.iconfinder.com/data/icons/news-and-magazine/512/compose-128.png" vertex="1" parent="1">
          <mxGeometry x="280.5" y="372" width="68" height="68" as="geometry" />
        </mxCell>
        <mxCell id="PzoiCF1ShPm4v35zvK3x-27" value="&lt;font style=&quot;font-size: 10px&quot;&gt;Add Today&#39;s Date to &lt;br&gt;MasterSheet &lt;br&gt;&amp;amp; Monthly Sheet&lt;/font&gt;" style="text;html=1;align=center;verticalAlign=middle;resizable=0;points=[];autosize=1;" vertex="1" parent="1">
          <mxGeometry x="270" y="440" width="100" height="50" as="geometry" />
        </mxCell>
        <mxCell id="PzoiCF1ShPm4v35zvK3x-29" value="&lt;font style=&quot;font-size: 10px&quot;&gt;Read StandBy &lt;br&gt;Process MasterSheet&lt;/font&gt;" style="text;html=1;align=center;verticalAlign=middle;resizable=0;points=[];autosize=1;" vertex="1" parent="1">
          <mxGeometry x="99" y="54" width="110" height="40" as="geometry" />
        </mxCell>
        <mxCell id="PzoiCF1ShPm4v35zvK3x-31" style="edgeStyle=orthogonalEdgeStyle;rounded=0;orthogonalLoop=1;jettySize=auto;html=1;" edge="1" parent="1" source="PzoiCF1ShPm4v35zvK3x-30">
          <mxGeometry relative="1" as="geometry">
            <mxPoint x="279" y="36" as="targetPoint" />
          </mxGeometry>
        </mxCell>
        <mxCell id="PzoiCF1ShPm4v35zvK3x-30" value="" style="shape=image;html=1;verticalAlign=top;verticalLabelPosition=bottom;labelBackgroundColor=#ffffff;imageAspect=0;aspect=fixed;image=https://cdn0.iconfinder.com/data/icons/logos-microsoft-office-365/128/Microsoft_Office-02-128.png" vertex="1" parent="1">
          <mxGeometry x="119" y="11" width="50" height="50" as="geometry" />
        </mxCell>
        <mxCell id="PzoiCF1ShPm4v35zvK3x-36" style="edgeStyle=orthogonalEdgeStyle;rounded=0;orthogonalLoop=1;jettySize=auto;html=1;entryX=0;entryY=0.5;entryDx=0;entryDy=0;" edge="1" parent="1" source="PzoiCF1ShPm4v35zvK3x-32" target="PzoiCF1ShPm4v35zvK3x-34">
          <mxGeometry relative="1" as="geometry" />
        </mxCell>
        <mxCell id="PzoiCF1ShPm4v35zvK3x-32" value="" style="shape=image;html=1;verticalAlign=top;verticalLabelPosition=bottom;labelBackgroundColor=#ffffff;imageAspect=0;aspect=fixed;image=https://cdn2.iconfinder.com/data/icons/file-8/128/file_Exel_download-128.png" vertex="1" parent="1">
          <mxGeometry x="278.5" y="5.5" width="61" height="61" as="geometry" />
        </mxCell>
        <mxCell id="PzoiCF1ShPm4v35zvK3x-33" value="&lt;font style=&quot;font-size: 10px&quot;&gt;Get All sheets Name&lt;/font&gt;" style="text;html=1;align=center;verticalAlign=middle;resizable=0;points=[];autosize=1;" vertex="1" parent="1">
          <mxGeometry x="249" y="60" width="110" height="20" as="geometry" />
        </mxCell>
        <mxCell id="PzoiCF1ShPm4v35zvK3x-45" style="edgeStyle=orthogonalEdgeStyle;rounded=0;orthogonalLoop=1;jettySize=auto;html=1;entryX=0;entryY=0.5;entryDx=0;entryDy=0;" edge="1" parent="1" source="PzoiCF1ShPm4v35zvK3x-34" target="PzoiCF1ShPm4v35zvK3x-43">
          <mxGeometry relative="1" as="geometry" />
        </mxCell>
        <mxCell id="PzoiCF1ShPm4v35zvK3x-46" value="No" style="edgeLabel;html=1;align=center;verticalAlign=middle;resizable=0;points=[];" vertex="1" connectable="0" parent="PzoiCF1ShPm4v35zvK3x-45">
          <mxGeometry x="-0.2893" relative="1" as="geometry">
            <mxPoint y="1" as="offset" />
          </mxGeometry>
        </mxCell>
        <mxCell id="PzoiCF1ShPm4v35zvK3x-53" style="edgeStyle=orthogonalEdgeStyle;rounded=0;orthogonalLoop=1;jettySize=auto;html=1;" edge="1" parent="1" source="PzoiCF1ShPm4v35zvK3x-34" target="PzoiCF1ShPm4v35zvK3x-47">
          <mxGeometry relative="1" as="geometry" />
        </mxCell>
        <mxCell id="PzoiCF1ShPm4v35zvK3x-54" value="Yes" style="edgeLabel;html=1;align=center;verticalAlign=middle;resizable=0;points=[];" vertex="1" connectable="0" parent="PzoiCF1ShPm4v35zvK3x-53">
          <mxGeometry x="-0.1784" y="-1" relative="1" as="geometry">
            <mxPoint as="offset" />
          </mxGeometry>
        </mxCell>
        <mxCell id="PzoiCF1ShPm4v35zvK3x-34" value="" style="shape=image;html=1;verticalAlign=top;verticalLabelPosition=bottom;labelBackgroundColor=#ffffff;imageAspect=0;aspect=fixed;image=https://cdn2.iconfinder.com/data/icons/xomo-basics/128/document-03-128.png" vertex="1" parent="1">
          <mxGeometry x="415" y="2.5" width="68" height="68" as="geometry" />
        </mxCell>
        <mxCell id="PzoiCF1ShPm4v35zvK3x-37" value="&lt;font style=&quot;font-size: 10px&quot;&gt;Check if Current&lt;br&gt;&amp;nbsp;Month sheet &amp;amp; &lt;br&gt;Chart sheet exists&lt;/font&gt;" style="text;html=1;align=center;verticalAlign=middle;resizable=0;points=[];autosize=1;" vertex="1" parent="1">
          <mxGeometry x="456.25" y="49" width="100" height="50" as="geometry" />
        </mxCell>
        <mxCell id="PzoiCF1ShPm4v35zvK3x-103" style="edgeStyle=orthogonalEdgeStyle;rounded=0;orthogonalLoop=1;jettySize=auto;html=1;entryX=1;entryY=0.5;entryDx=0;entryDy=0;" edge="1" parent="1" source="PzoiCF1ShPm4v35zvK3x-43" target="PzoiCF1ShPm4v35zvK3x-47">
          <mxGeometry relative="1" as="geometry">
            <Array as="points">
              <mxPoint x="638" y="156" />
            </Array>
          </mxGeometry>
        </mxCell>
        <mxCell id="PzoiCF1ShPm4v35zvK3x-43" value="" style="shape=image;html=1;verticalAlign=top;verticalLabelPosition=bottom;labelBackgroundColor=#ffffff;imageAspect=0;aspect=fixed;image=https://cdn4.iconfinder.com/data/icons/general-office/91/General_Office_09-128.png" vertex="1" parent="1">
          <mxGeometry x="609" y="7" width="58" height="58" as="geometry" />
        </mxCell>
        <mxCell id="PzoiCF1ShPm4v35zvK3x-48" style="edgeStyle=orthogonalEdgeStyle;rounded=0;orthogonalLoop=1;jettySize=auto;html=1;entryX=0.5;entryY=0;entryDx=0;entryDy=0;" edge="1" parent="1" source="PzoiCF1ShPm4v35zvK3x-47" target="PzoiCF1ShPm4v35zvK3x-7">
          <mxGeometry relative="1" as="geometry" />
        </mxCell>
        <mxCell id="PzoiCF1ShPm4v35zvK3x-47" value="" style="shape=image;html=1;verticalAlign=top;verticalLabelPosition=bottom;labelBackgroundColor=#ffffff;imageAspect=0;aspect=fixed;image=https://cdn2.iconfinder.com/data/icons/picol-vector/32/server_cancel-128.png" vertex="1" parent="1">
          <mxGeometry x="417" y="123" width="66" height="66" as="geometry" />
        </mxCell>
        <mxCell id="PzoiCF1ShPm4v35zvK3x-50" value="&lt;font style=&quot;font-size: 10px&quot;&gt;Create Monthly Sheet&lt;br&gt;&amp;nbsp;&amp;amp; Monthly Chart Sheet&lt;/font&gt;" style="text;html=1;align=center;verticalAlign=middle;resizable=0;points=[];autosize=1;" vertex="1" parent="1">
          <mxGeometry x="664" y="26" width="120" height="40" as="geometry" />
        </mxCell>
        <mxCell id="PzoiCF1ShPm4v35zvK3x-64" style="edgeStyle=orthogonalEdgeStyle;rounded=0;orthogonalLoop=1;jettySize=auto;html=1;" edge="1" parent="1" source="PzoiCF1ShPm4v35zvK3x-60">
          <mxGeometry relative="1" as="geometry">
            <mxPoint x="249" y="565.5" as="targetPoint" />
          </mxGeometry>
        </mxCell>
        <mxCell id="PzoiCF1ShPm4v35zvK3x-60" value="" style="shape=image;html=1;verticalAlign=top;verticalLabelPosition=bottom;labelBackgroundColor=#ffffff;imageAspect=0;aspect=fixed;image=https://cdn3.iconfinder.com/data/icons/brands-applications/512/Excel_D-128.png" vertex="1" parent="1">
          <mxGeometry x="120" y="538" width="55" height="55" as="geometry" />
        </mxCell>
        <mxCell id="PzoiCF1ShPm4v35zvK3x-62" value="&lt;font style=&quot;font-size: 10px&quot;&gt;Read StandBy &lt;br&gt;Mastersheet&lt;/font&gt;" style="text;html=1;align=center;verticalAlign=middle;resizable=0;points=[];autosize=1;" vertex="1" parent="1">
          <mxGeometry x="109" y="586" width="80" height="40" as="geometry" />
        </mxCell>
        <mxCell id="PzoiCF1ShPm4v35zvK3x-69" style="edgeStyle=orthogonalEdgeStyle;rounded=0;orthogonalLoop=1;jettySize=auto;html=1;" edge="1" parent="1" source="PzoiCF1ShPm4v35zvK3x-63">
          <mxGeometry relative="1" as="geometry">
            <mxPoint x="379" y="566.5" as="targetPoint" />
          </mxGeometry>
        </mxCell>
        <mxCell id="PzoiCF1ShPm4v35zvK3x-63" value="" style="aspect=fixed;pointerEvents=1;shadow=0;dashed=0;html=1;strokeColor=none;labelPosition=center;verticalLabelPosition=bottom;verticalAlign=top;align=center;fillColor=#00188D;shape=mxgraph.mscae.enterprise.filter" vertex="1" parent="1">
          <mxGeometry x="252" y="544" width="50" height="45" as="geometry" />
        </mxCell>
        <mxCell id="PzoiCF1ShPm4v35zvK3x-66" value="&lt;font style=&quot;font-size: 10px&quot;&gt;Filter the&amp;nbsp; Record&lt;br&gt;&amp;nbsp;which has only Date&lt;/font&gt;" style="text;html=1;align=center;verticalAlign=middle;resizable=0;points=[];autosize=1;" vertex="1" parent="1">
          <mxGeometry x="223.5" y="586" width="110" height="40" as="geometry" />
        </mxCell>
        <mxCell id="PzoiCF1ShPm4v35zvK3x-84" style="edgeStyle=orthogonalEdgeStyle;rounded=0;orthogonalLoop=1;jettySize=auto;html=1;" edge="1" parent="1" source="PzoiCF1ShPm4v35zvK3x-68">
          <mxGeometry relative="1" as="geometry">
            <mxPoint x="519" y="565.5" as="targetPoint" />
          </mxGeometry>
        </mxCell>
        <mxCell id="PzoiCF1ShPm4v35zvK3x-89" style="edgeStyle=orthogonalEdgeStyle;rounded=0;orthogonalLoop=1;jettySize=auto;html=1;" edge="1" parent="1" source="PzoiCF1ShPm4v35zvK3x-68">
          <mxGeometry relative="1" as="geometry">
            <mxPoint x="414.25" y="711" as="targetPoint" />
          </mxGeometry>
        </mxCell>
        <mxCell id="PzoiCF1ShPm4v35zvK3x-90" value="No" style="edgeLabel;html=1;align=center;verticalAlign=middle;resizable=0;points=[];" vertex="1" connectable="0" parent="PzoiCF1ShPm4v35zvK3x-89">
          <mxGeometry x="0.2857" relative="1" as="geometry">
            <mxPoint as="offset" />
          </mxGeometry>
        </mxCell>
        <mxCell id="PzoiCF1ShPm4v35zvK3x-68" value="" style="image;html=1;image=img/lib/clip_art/computers/Data_Filtering_128x128.png" vertex="1" parent="1">
          <mxGeometry x="384.25" y="532" width="60" height="67" as="geometry" />
        </mxCell>
        <mxCell id="PzoiCF1ShPm4v35zvK3x-70" value="&lt;font style=&quot;font-size: 10px&quot;&gt;If any&lt;br&gt;&amp;nbsp;Record&lt;br&gt;&amp;nbsp;Exist&lt;/font&gt;" style="text;html=1;align=center;verticalAlign=middle;resizable=0;points=[];autosize=1;" vertex="1" parent="1">
          <mxGeometry x="424" y="581" width="50" height="50" as="geometry" />
        </mxCell>
        <mxCell id="PzoiCF1ShPm4v35zvK3x-81" style="edgeStyle=orthogonalEdgeStyle;rounded=0;orthogonalLoop=1;jettySize=auto;html=1;entryX=0;entryY=0.5;entryDx=0;entryDy=0;" edge="1" parent="1" source="PzoiCF1ShPm4v35zvK3x-71" target="PzoiCF1ShPm4v35zvK3x-74">
          <mxGeometry relative="1" as="geometry" />
        </mxCell>
        <mxCell id="PzoiCF1ShPm4v35zvK3x-94" style="edgeStyle=orthogonalEdgeStyle;rounded=0;orthogonalLoop=1;jettySize=auto;html=1;entryX=1;entryY=0.5;entryDx=0;entryDy=0;" edge="1" parent="1" source="PzoiCF1ShPm4v35zvK3x-71" target="PzoiCF1ShPm4v35zvK3x-88">
          <mxGeometry relative="1" as="geometry">
            <Array as="points">
              <mxPoint x="561" y="751" />
            </Array>
          </mxGeometry>
        </mxCell>
        <mxCell id="PzoiCF1ShPm4v35zvK3x-95" value="No" style="edgeLabel;html=1;align=center;verticalAlign=middle;resizable=0;points=[];" vertex="1" connectable="0" parent="PzoiCF1ShPm4v35zvK3x-94">
          <mxGeometry x="-0.1182" y="-1" relative="1" as="geometry">
            <mxPoint as="offset" />
          </mxGeometry>
        </mxCell>
        <mxCell id="PzoiCF1ShPm4v35zvK3x-71" value="" style="shape=image;html=1;verticalAlign=top;verticalLabelPosition=bottom;labelBackgroundColor=#ffffff;imageAspect=0;aspect=fixed;image=https://cdn3.iconfinder.com/data/icons/4web-3/139/compare2-128.png" vertex="1" parent="1">
          <mxGeometry x="521" y="524" width="80" height="80" as="geometry" />
        </mxCell>
        <mxCell id="PzoiCF1ShPm4v35zvK3x-73" value="&lt;font style=&quot;font-size: 10px&quot;&gt;Match if &lt;br&gt;Unprocessed&lt;br&gt;&amp;nbsp;Record &lt;br&gt;Exists in Todays &lt;br&gt;Email Record&lt;/font&gt;" style="text;html=1;align=center;verticalAlign=middle;resizable=0;points=[];autosize=1;" vertex="1" parent="1">
          <mxGeometry x="601" y="581" width="90" height="80" as="geometry" />
        </mxCell>
        <mxCell id="PzoiCF1ShPm4v35zvK3x-93" style="edgeStyle=orthogonalEdgeStyle;rounded=0;orthogonalLoop=1;jettySize=auto;html=1;" edge="1" parent="1" source="PzoiCF1ShPm4v35zvK3x-74">
          <mxGeometry relative="1" as="geometry">
            <mxPoint x="419" y="791" as="targetPoint" />
            <Array as="points">
              <mxPoint x="721" y="841" />
              <mxPoint x="419" y="841" />
            </Array>
          </mxGeometry>
        </mxCell>
        <mxCell id="PzoiCF1ShPm4v35zvK3x-74" value="" style="shape=image;html=1;verticalAlign=top;verticalLabelPosition=bottom;labelBackgroundColor=#ffffff;imageAspect=0;aspect=fixed;image=https://cdn1.iconfinder.com/data/icons/Momentum_MatteEntireSet/32/data--add.png" vertex="1" parent="1">
          <mxGeometry x="699" y="542" width="44" height="44" as="geometry" />
        </mxCell>
        <mxCell id="PzoiCF1ShPm4v35zvK3x-77" value="&lt;font style=&quot;font-size: 10px&quot;&gt;Add Data to the &lt;br&gt;Process Data Table&lt;/font&gt;" style="text;html=1;align=center;verticalAlign=middle;resizable=0;points=[];autosize=1;" vertex="1" parent="1">
          <mxGeometry x="722" y="581" width="100" height="40" as="geometry" />
        </mxCell>
        <mxCell id="PzoiCF1ShPm4v35zvK3x-85" value="&lt;font style=&quot;font-size: 10px&quot;&gt;Yes&lt;/font&gt;" style="text;html=1;align=center;verticalAlign=middle;resizable=0;points=[];autosize=1;" vertex="1" parent="1">
          <mxGeometry x="464" y="548" width="30" height="20" as="geometry" />
        </mxCell>
        <mxCell id="PzoiCF1ShPm4v35zvK3x-86" value="&lt;font style=&quot;font-size: 10px&quot;&gt;Yes&lt;/font&gt;" style="text;html=1;align=center;verticalAlign=middle;resizable=0;points=[];autosize=1;" vertex="1" parent="1">
          <mxGeometry x="623" y="548" width="30" height="20" as="geometry" />
        </mxCell>
        <mxCell id="PzoiCF1ShPm4v35zvK3x-99" style="edgeStyle=orthogonalEdgeStyle;rounded=0;orthogonalLoop=1;jettySize=auto;html=1;" edge="1" parent="1" source="PzoiCF1ShPm4v35zvK3x-88">
          <mxGeometry relative="1" as="geometry">
            <mxPoint x="309" y="751" as="targetPoint" />
          </mxGeometry>
        </mxCell>
        <mxCell id="PzoiCF1ShPm4v35zvK3x-88" value="" style="shape=image;html=1;verticalAlign=top;verticalLabelPosition=bottom;labelBackgroundColor=#ffffff;imageAspect=0;aspect=fixed;image=https://cdn2.iconfinder.com/data/icons/picol-vector/32/document_text_cancel-128.png" vertex="1" parent="1">
          <mxGeometry x="386.25" y="716" width="70" height="70" as="geometry" />
        </mxCell>
        <mxCell id="PzoiCF1ShPm4v35zvK3x-96" value="&lt;font style=&quot;font-size: 10px&quot;&gt;Close Sheet&lt;/font&gt;" style="text;html=1;align=center;verticalAlign=middle;resizable=0;points=[];autosize=1;" vertex="1" parent="1">
          <mxGeometry x="419" y="787" width="70" height="20" as="geometry" />
        </mxCell>
        <mxCell id="PzoiCF1ShPm4v35zvK3x-97" value="" style="shape=image;html=1;verticalAlign=top;verticalLabelPosition=bottom;labelBackgroundColor=#ffffff;imageAspect=0;aspect=fixed;image=https://cdn0.iconfinder.com/data/icons/google-material-design-3-0/48/ic_queue_48px-128.png" vertex="1" parent="1">
          <mxGeometry x="119" y="870" width="49" height="49" as="geometry" />
        </mxCell>
        <mxCell id="PzoiCF1ShPm4v35zvK3x-100" style="edgeStyle=orthogonalEdgeStyle;rounded=0;orthogonalLoop=1;jettySize=auto;html=1;" edge="1" parent="1" source="PzoiCF1ShPm4v35zvK3x-98" target="PzoiCF1ShPm4v35zvK3x-97">
          <mxGeometry relative="1" as="geometry" />
        </mxCell>
        <mxCell id="PzoiCF1ShPm4v35zvK3x-98" value="" style="shape=image;html=1;verticalAlign=top;verticalLabelPosition=bottom;labelBackgroundColor=#ffffff;imageAspect=0;aspect=fixed;image=https://cdn4.iconfinder.com/data/icons/core-ui-outlined/32/outlined_filter-128.png" vertex="1" parent="1">
          <mxGeometry x="223.5" y="716" width="80" height="80" as="geometry" />
        </mxCell>
        <mxCell id="PzoiCF1ShPm4v35zvK3x-101" value="&lt;font style=&quot;font-size: 10px&quot;&gt;Filter the process &lt;br&gt;&amp;amp;&lt;br&gt;&amp;nbsp;Unprocessed Record&lt;/font&gt;" style="text;html=1;align=center;verticalAlign=middle;resizable=0;points=[];autosize=1;" vertex="1" parent="1">
          <mxGeometry x="204" y="782" width="110" height="50" as="geometry" />
        </mxCell>
        <mxCell id="PzoiCF1ShPm4v35zvK3x-106" value="&lt;font style=&quot;font-size: 10px&quot;&gt;Add process Record to the&lt;br&gt;&amp;nbsp;Orchestrator Queue&lt;/font&gt;" style="text;html=1;align=center;verticalAlign=middle;resizable=0;points=[];autosize=1;" vertex="1" parent="1">
          <mxGeometry x="168" y="870" width="130" height="40" as="geometry" />
        </mxCell>
      </root>
    </mxGraphModel>
  </diagram>
</mxfile>
